<svg width="25" height="24" viewBox="0 0 25 24" fill="none" xmlns="http://www.w3.org/2000/svg">
<path d="M17.1571 11.255C17.0692 11.2129 16.9799 11.1723 16.8895 11.1335C16.7321 8.23217 15.1467 6.57114 12.4847 6.55414C12.4726 6.55407 12.4606 6.55407 12.4486 6.55407C10.8564 6.55407 9.53214 7.23371 8.71709 8.47044L10.1811 9.47472C10.79 8.55093 11.7456 8.354 12.4493 8.354C12.4574 8.354 12.4656 8.354 12.4736 8.35407C13.3501 8.35966 14.0115 8.6145 14.4396 9.11148C14.7511 9.47329 14.9595 9.97327 15.0627 10.6043C14.2855 10.4722 13.4451 10.4316 12.5467 10.4831C10.0157 10.6289 8.38868 12.105 8.49796 14.156C8.55341 15.1964 9.07172 16.0915 9.95734 16.6762C10.7061 17.1704 11.6705 17.4122 12.6728 17.3574C13.9964 17.2849 15.0348 16.7799 15.7592 15.8564C16.3094 15.1552 16.6574 14.2464 16.811 13.1014C17.4418 13.4821 17.9093 13.983 18.1675 14.5853C18.6065 15.609 18.6321 17.2912 17.2595 18.6627C16.0568 19.8642 14.6112 20.384 12.4264 20.4C10.0029 20.3821 8.17009 19.6048 6.97842 18.0899C5.86252 16.6714 5.28582 14.6225 5.2643 12C5.28582 9.3775 5.86252 7.32856 6.97842 5.91003C8.17009 4.39513 10.0029 3.61793 12.4264 3.59992C14.8675 3.61806 16.7323 4.39901 17.9696 5.92121C18.5762 6.66768 19.0336 7.60642 19.3352 8.70096L21.0508 8.24322C20.6853 6.89597 20.1102 5.73503 19.3275 4.77223C17.7413 2.8207 15.4215 1.82072 12.4324 1.79999H12.4204C9.43742 1.82065 7.14354 2.82443 5.60251 4.78341C4.2312 6.52667 3.52384 8.95228 3.50007 11.9928L3.5 12L3.50007 12.0072C3.52384 15.0477 4.2312 17.4734 5.60251 19.2166C7.14354 21.1755 9.43742 22.1794 12.4204 22.2H12.4324C15.0844 22.1816 16.9538 21.4873 18.4938 19.9487C20.5086 17.9358 20.4479 15.4126 19.7839 13.8637C19.3074 12.753 18.3991 11.8508 17.1571 11.255ZM12.5781 15.5601C11.4688 15.6226 10.3164 15.1247 10.2596 14.0583C10.2175 13.2676 10.8223 12.3853 12.6461 12.2801C12.855 12.2681 13.0599 12.2622 13.2613 12.2622C13.9238 12.2622 14.5435 12.3266 15.107 12.4497C14.8968 15.0743 13.6641 15.5005 12.5781 15.5601Z" fill="white"/>
</svg>
