<svg width="23" height="22" viewBox="0 0 23 22" fill="none" xmlns="http://www.w3.org/2000/svg">
<path d="M8.32599 11C8.32599 8.97503 9.96809 7.33304 11.9943 7.33304C14.0205 7.33304 15.6634 8.97503 15.6634 11C15.6634 13.025 14.0205 14.667 11.9943 14.667C9.96809 14.667 8.32599 13.025 8.32599 11ZM6.34251 11C6.34251 14.1196 8.8728 16.6484 11.9943 16.6484C15.1157 16.6484 17.646 14.1196 17.646 11C17.646 7.8804 15.1157 5.35163 11.9943 5.35163C8.8728 5.35163 6.34251 7.8804 6.34251 11ZM16.549 5.12767C16.5489 5.38874 16.6262 5.64398 16.7713 5.86111C16.9163 6.07824 17.1225 6.24751 17.3638 6.34752C17.6051 6.44752 17.8707 6.47377 18.1269 6.42294C18.3832 6.37211 18.6185 6.24649 18.8033 6.06195C18.9881 5.87742 19.114 5.64227 19.1651 5.38624C19.2161 5.1302 19.1901 4.86478 19.0902 4.62355C18.9904 4.38231 18.8211 4.17608 18.604 4.03095C18.3869 3.88582 18.1315 3.8083 17.8703 3.8082H17.8698C17.5196 3.80836 17.1838 3.94741 16.9362 4.19481C16.6886 4.44221 16.5493 4.77773 16.549 5.12767ZM7.54761 19.9537C6.47451 19.9049 5.89124 19.7263 5.50363 19.5753C4.98976 19.3754 4.62311 19.1373 4.23761 18.7525C3.85212 18.3678 3.61349 18.0017 3.41432 17.4882C3.26322 17.101 3.08447 16.5179 3.03569 15.4454C2.98233 14.2859 2.97168 13.9376 2.97168 11.0001C2.97168 8.06256 2.98321 7.71522 3.03569 6.55477C3.08456 5.48231 3.26463 4.90037 3.41432 4.51202C3.61437 3.99846 3.85264 3.63202 4.23761 3.24676C4.62258 2.8615 4.98888 2.62302 5.50363 2.42396C5.89107 2.27295 6.47451 2.09431 7.54761 2.04556C8.70779 1.99223 9.0563 1.98158 11.9943 1.98158C14.9322 1.98158 15.2811 1.99311 16.4423 2.04556C17.5154 2.0944 18.0977 2.27436 18.4862 2.42396C19.0001 2.62302 19.3668 2.86202 19.7523 3.24676C20.1377 3.6315 20.3755 3.99846 20.5755 4.51202C20.7266 4.89922 20.9054 5.48231 20.9542 6.55477C21.0075 7.71522 21.0182 8.06256 21.0182 11.0001C21.0182 13.9376 21.0075 14.285 20.9542 15.4454C20.9053 16.5179 20.7257 17.1008 20.5755 17.4882C20.3755 18.0017 20.1372 18.3682 19.7523 18.7525C19.3673 19.1369 19.0001 19.3754 18.4862 19.5753C18.0988 19.7263 17.5154 19.905 16.4423 19.9537C15.2821 20.0071 14.9336 20.0177 11.9943 20.0177C9.05498 20.0177 8.70744 20.0071 7.54761 19.9537ZM7.45647 0.066616C6.28475 0.119944 5.48409 0.305624 4.78486 0.577544C4.06071 0.858352 3.44769 1.23508 2.83511 1.84633C2.22252 2.45758 1.84654 3.0712 1.56556 3.79491C1.29348 4.49416 1.10769 5.2939 1.05433 6.46492C1.00009 7.63778 0.987671 8.01275 0.987671 11C0.987671 13.9872 1.00009 14.3622 1.05433 15.5351C1.10769 16.7062 1.29348 17.5058 1.56556 18.2051C1.84654 18.9284 2.22261 19.5427 2.83511 20.1537C3.4476 20.7647 4.06071 21.1409 4.78486 21.4225C5.48541 21.6944 6.28475 21.8801 7.45647 21.9334C8.63065 21.9867 9.00523 22 11.9943 22C14.9833 22 15.3585 21.9876 16.5321 21.9334C17.7039 21.8801 18.504 21.6944 19.2037 21.4225C19.9274 21.1409 20.5409 20.7649 21.1534 20.1537C21.766 19.5424 22.1412 18.9284 22.423 18.2051C22.6951 17.5058 22.8817 16.7061 22.9342 15.5351C22.9876 14.3613 23 13.9872 23 11C23 8.01275 22.9876 7.63778 22.9342 6.46492C22.8809 5.29382 22.6951 4.49372 22.423 3.79491C22.1412 3.07164 21.7651 2.45854 21.1534 1.84633C20.5418 1.23411 19.9274 0.858352 19.2046 0.577544C18.504 0.305624 17.7038 0.119064 16.533 0.066616C15.3594 0.013288 14.9842 0 11.9952 0C9.00611 0 8.63065 0.012408 7.45647 0.066616Z" fill="white"/>
<path d="M8.32599 11C8.32599 8.97503 9.96809 7.33304 11.9943 7.33304C14.0205 7.33304 15.6634 8.97503 15.6634 11C15.6634 13.025 14.0205 14.667 11.9943 14.667C9.96809 14.667 8.32599 13.025 8.32599 11ZM6.34251 11C6.34251 14.1196 8.8728 16.6484 11.9943 16.6484C15.1157 16.6484 17.646 14.1196 17.646 11C17.646 7.8804 15.1157 5.35163 11.9943 5.35163C8.8728 5.35163 6.34251 7.8804 6.34251 11ZM16.549 5.12767C16.5489 5.38874 16.6262 5.64398 16.7713 5.86111C16.9163 6.07824 17.1225 6.24751 17.3638 6.34752C17.6051 6.44752 17.8707 6.47377 18.1269 6.42294C18.3832 6.37211 18.6185 6.24649 18.8033 6.06195C18.9881 5.87742 19.114 5.64227 19.1651 5.38624C19.2161 5.1302 19.1901 4.86478 19.0902 4.62355C18.9904 4.38231 18.8211 4.17608 18.604 4.03095C18.3869 3.88582 18.1315 3.8083 17.8703 3.8082H17.8698C17.5196 3.80836 17.1838 3.94741 16.9362 4.19481C16.6886 4.44221 16.5493 4.77773 16.549 5.12767ZM7.54761 19.9537C6.47451 19.9049 5.89124 19.7263 5.50363 19.5753C4.98976 19.3754 4.62311 19.1373 4.23761 18.7525C3.85212 18.3678 3.61349 18.0017 3.41432 17.4882C3.26322 17.101 3.08447 16.5179 3.03569 15.4454C2.98233 14.2859 2.97168 13.9376 2.97168 11.0001C2.97168 8.06256 2.98321 7.71522 3.03569 6.55477C3.08456 5.48231 3.26463 4.90037 3.41432 4.51202C3.61437 3.99846 3.85264 3.63202 4.23761 3.24676C4.62258 2.8615 4.98888 2.62302 5.50363 2.42396C5.89107 2.27295 6.47451 2.09431 7.54761 2.04556C8.70779 1.99223 9.0563 1.98158 11.9943 1.98158C14.9322 1.98158 15.2811 1.99311 16.4423 2.04556C17.5154 2.0944 18.0977 2.27436 18.4862 2.42396C19.0001 2.62302 19.3668 2.86202 19.7523 3.24676C20.1377 3.6315 20.3755 3.99846 20.5755 4.51202C20.7266 4.89922 20.9054 5.48231 20.9542 6.55477C21.0075 7.71522 21.0182 8.06256 21.0182 11.0001C21.0182 13.9376 21.0075 14.285 20.9542 15.4454C20.9053 16.5179 20.7257 17.1008 20.5755 17.4882C20.3755 18.0017 20.1372 18.3682 19.7523 18.7525C19.3673 19.1369 19.0001 19.3754 18.4862 19.5753C18.0988 19.7263 17.5154 19.905 16.4423 19.9537C15.2821 20.0071 14.9336 20.0177 11.9943 20.0177C9.05498 20.0177 8.70744 20.0071 7.54761 19.9537ZM7.45647 0.066616C6.28475 0.119944 5.48409 0.305624 4.78486 0.577544C4.06071 0.858352 3.44769 1.23508 2.83511 1.84633C2.22252 2.45758 1.84654 3.0712 1.56556 3.79491C1.29348 4.49416 1.10769 5.2939 1.05433 6.46492C1.00009 7.63778 0.987671 8.01275 0.987671 11C0.987671 13.9872 1.00009 14.3622 1.05433 15.5351C1.10769 16.7062 1.29348 17.5058 1.56556 18.2051C1.84654 18.9284 2.22261 19.5427 2.83511 20.1537C3.4476 20.7647 4.06071 21.1409 4.78486 21.4225C5.48541 21.6944 6.28475 21.8801 7.45647 21.9334C8.63065 21.9867 9.00523 22 11.9943 22C14.9833 22 15.3585 21.9876 16.5321 21.9334C17.7039 21.8801 18.504 21.6944 19.2037 21.4225C19.9274 21.1409 20.5409 20.7649 21.1534 20.1537C21.766 19.5424 22.1412 18.9284 22.423 18.2051C22.6951 17.5058 22.8817 16.7061 22.9342 15.5351C22.9876 14.3613 23 13.9872 23 11C23 8.01275 22.9876 7.63778 22.9342 6.46492C22.8809 5.29382 22.6951 4.49372 22.423 3.79491C22.1412 3.07164 21.7651 2.45854 21.1534 1.84633C20.5418 1.23411 19.9274 0.858352 19.2046 0.577544C18.504 0.305624 17.7038 0.119064 16.533 0.066616C15.3594 0.013288 14.9842 0 11.9952 0C9.00611 0 8.63065 0.012408 7.45647 0.066616Z" fill="white"/>
</svg>
